<mxfile host="65bd71144e">
    <diagram id="82_vwELPYZC7ZZ-vPxFZ" name="第 1 页">
        <mxGraphModel dx="1801" dy="358" grid="1" gridSize="10" guides="1" tooltips="1" connect="1" arrows="1" fold="1" page="1" pageScale="1" pageWidth="1200" pageHeight="1920" background="#FFFFFF" math="0" shadow="0">
            <root>
                <mxCell id="0"/>
                <mxCell id="1" parent="0"/>
                <mxCell id="25" style="edgeStyle=none;html=1;exitX=0.5;exitY=1;exitDx=0;exitDy=0;fontColor=#000000;strokeColor=#000000;strokeWidth=2;" edge="1" parent="1" source="2" target="3">
                    <mxGeometry relative="1" as="geometry"/>
                </mxCell>
                <mxCell id="2" value="parse_content" style="whiteSpace=wrap;html=1;" vertex="1" parent="1">
                    <mxGeometry x="480" y="70" width="120" height="60" as="geometry"/>
                </mxCell>
                <mxCell id="7" style="edgeStyle=none;html=1;exitX=0.5;exitY=1;exitDx=0;exitDy=0;entryX=0.5;entryY=0;entryDx=0;entryDy=0;fontColor=#000000;strokeColor=#000000;strokeWidth=2;" edge="1" parent="1" source="3" target="5">
                    <mxGeometry relative="1" as="geometry"/>
                </mxCell>
                <mxCell id="23" style="edgeStyle=none;html=1;exitX=0.5;exitY=1;exitDx=0;exitDy=0;fontColor=#000000;strokeColor=#000000;strokeWidth=2;entryX=0.5;entryY=0;entryDx=0;entryDy=0;" edge="1" parent="1" source="3" target="24">
                    <mxGeometry relative="1" as="geometry">
                        <mxPoint x="650" y="330" as="targetPoint"/>
                    </mxGeometry>
                </mxCell>
                <mxCell id="3" value="判断" style="rhombus;whiteSpace=wrap;html=1;" vertex="1" parent="1">
                    <mxGeometry x="475" y="160" width="130" height="80" as="geometry"/>
                </mxCell>
                <mxCell id="5" value="截取消息体,并赋值给m_string&lt;br&gt;return GET_REQUEST" style="whiteSpace=wrap;html=1;" vertex="1" parent="1">
                    <mxGeometry x="200" y="370" width="120" height="60" as="geometry"/>
                </mxCell>
                <mxCell id="6" value="&lt;pre&gt;&lt;span class=&quot;line&quot;&gt;buffer读取了消息体&lt;/span&gt;&lt;/pre&gt;" style="text;html=1;align=center;verticalAlign=middle;resizable=0;points=[];autosize=1;strokeColor=none;fillColor=none;fontColor=#000000;" vertex="1" parent="1">
                    <mxGeometry x="335" y="260" width="130" height="40" as="geometry"/>
                </mxCell>
                <mxCell id="8" value="&lt;pre&gt;&lt;span class=&quot;line&quot;&gt;adsadsfname=Professional%20Ajax&amp;amp;publisher=Wileyfffdafss&lt;/span&gt;&lt;/pre&gt;" style="text;html=1;align=center;verticalAlign=middle;resizable=0;points=[];autosize=1;strokeColor=none;fillColor=none;fontColor=#000000;" vertex="1" parent="1">
                    <mxGeometry x="-105" y="100" width="410" height="40" as="geometry"/>
                </mxCell>
                <mxCell id="9" value="&lt;pre&gt;假设buffer&lt;/pre&gt;" style="text;html=1;align=center;verticalAlign=middle;resizable=0;points=[];autosize=1;strokeColor=none;fillColor=none;fontColor=#000000;" vertex="1" parent="1">
                    <mxGeometry x="70" y="20" width="80" height="40" as="geometry"/>
                </mxCell>
                <mxCell id="10" value="&lt;pre&gt;m_content_length=40&lt;/pre&gt;" style="text;html=1;align=center;verticalAlign=middle;resizable=0;points=[];autosize=1;strokeColor=none;fillColor=none;fontColor=#000000;" vertex="1" parent="1">
                    <mxGeometry x="50" y="40" width="150" height="40" as="geometry"/>
                </mxCell>
                <mxCell id="11" value="" style="triangle;whiteSpace=wrap;html=1;fontColor=#000000;direction=south;" vertex="1" parent="1">
                    <mxGeometry x="-70" y="85" width="40" height="30" as="geometry"/>
                </mxCell>
                <mxCell id="12" value="&lt;pre&gt;checked_idx&lt;/pre&gt;" style="text;html=1;align=center;verticalAlign=middle;resizable=0;points=[];autosize=1;strokeColor=none;fillColor=none;fontColor=#000000;" vertex="1" parent="1">
                    <mxGeometry x="-85" y="50" width="90" height="40" as="geometry"/>
                </mxCell>
                <mxCell id="13" value="&lt;pre&gt;read_idx&lt;/pre&gt;" style="text;html=1;align=center;verticalAlign=middle;resizable=0;points=[];autosize=1;strokeColor=none;fillColor=none;fontColor=#000000;" vertex="1" parent="1">
                    <mxGeometry x="265" y="60" width="70" height="40" as="geometry"/>
                </mxCell>
                <mxCell id="14" value="" style="triangle;whiteSpace=wrap;html=1;fontColor=#000000;direction=south;" vertex="1" parent="1">
                    <mxGeometry x="280" y="90" width="40" height="30" as="geometry"/>
                </mxCell>
                <mxCell id="16" value="&lt;pre&gt;&lt;br&gt;&lt;/pre&gt;" style="text;html=1;align=center;verticalAlign=middle;resizable=0;points=[];autosize=1;strokeColor=none;fillColor=none;fontColor=#000000;" vertex="1" parent="1">
                    <mxGeometry x="85" y="190" width="20" height="40" as="geometry"/>
                </mxCell>
                <mxCell id="17" value="&lt;pre&gt;&lt;span class=&quot;line&quot;&gt;name=Professional%20Ajax&amp;amp;publisher=Wileyfffdafss&lt;/span&gt;&lt;/pre&gt;" style="text;html=1;align=center;verticalAlign=middle;resizable=0;points=[];autosize=1;strokeColor=none;fillColor=none;fontColor=#000000;" vertex="1" parent="1">
                    <mxGeometry x="-80" y="160" width="360" height="40" as="geometry"/>
                </mxCell>
                <mxCell id="18" value="&lt;pre&gt;text&lt;/pre&gt;" style="text;html=1;align=center;verticalAlign=middle;resizable=0;points=[];autosize=1;strokeColor=none;fillColor=none;fontColor=#000000;" vertex="1" parent="1">
                    <mxGeometry x="75" y="140" width="40" height="40" as="geometry"/>
                </mxCell>
                <mxCell id="19" value="&lt;pre&gt;&lt;span class=&quot;line&quot;&gt;name=Professional%20Ajax&amp;amp;publisher=Wiley\0fffdafss&lt;/span&gt;&lt;/pre&gt;" style="text;html=1;align=center;verticalAlign=middle;resizable=0;points=[];autosize=1;strokeColor=none;fillColor=none;fontColor=#000000;" vertex="1" parent="1">
                    <mxGeometry x="-90" y="220" width="380" height="40" as="geometry"/>
                </mxCell>
                <mxCell id="20" value="&lt;pre&gt;text&lt;/pre&gt;" style="text;html=1;align=center;verticalAlign=middle;resizable=0;points=[];autosize=1;strokeColor=none;fillColor=none;fontColor=#000000;" vertex="1" parent="1">
                    <mxGeometry x="75" y="200" width="40" height="40" as="geometry"/>
                </mxCell>
                <mxCell id="21" value="&lt;pre&gt;text&lt;/pre&gt;" style="text;html=1;align=center;verticalAlign=middle;resizable=0;points=[];autosize=1;strokeColor=none;fillColor=none;fontColor=#000000;" vertex="1" parent="1">
                    <mxGeometry x="50" y="260" width="40" height="40" as="geometry"/>
                </mxCell>
                <mxCell id="22" value="&lt;pre&gt;&lt;span class=&quot;line&quot;&gt;name=Professional%20Ajax&amp;amp;publisher=Wiley&lt;/span&gt;&lt;/pre&gt;" style="text;html=1;align=center;verticalAlign=middle;resizable=0;points=[];autosize=1;strokeColor=none;fillColor=none;fontColor=#000000;" vertex="1" parent="1">
                    <mxGeometry x="-60" y="290" width="300" height="40" as="geometry"/>
                </mxCell>
                <mxCell id="24" value="return NO_REQUEST" style="whiteSpace=wrap;html=1;" vertex="1" parent="1">
                    <mxGeometry x="650" y="370" width="120" height="60" as="geometry"/>
                </mxCell>
            </root>
        </mxGraphModel>
    </diagram>
</mxfile>